<mxfile host="app.diagrams.net" modified="2022-10-12T06:37:08.630Z" agent="5.0 (Macintosh; Intel Mac OS X 10_15_7) AppleWebKit/537.36 (KHTML, like Gecko) Chrome/106.0.0.0 Safari/537.36" etag="h5NqGr9qFW8Px2mVpsQA" version="20.4.0" type="github">
  <diagram id="D4fAzZKvlrdj8TOEy_m-" name="Page-1">
    <mxGraphModel dx="2258" dy="1988" grid="1" gridSize="10" guides="1" tooltips="1" connect="1" arrows="1" fold="1" page="1" pageScale="1" pageWidth="850" pageHeight="1100" math="0" shadow="0">
      <root>
        <mxCell id="0" />
        <mxCell id="1" parent="0" />
        <mxCell id="m_vW4j6HjIQTjGsOd7-y-6" value="" style="rounded=0;whiteSpace=wrap;html=1;" vertex="1" parent="1">
          <mxGeometry x="40" y="700" width="920" height="130" as="geometry" />
        </mxCell>
        <mxCell id="m_vW4j6HjIQTjGsOd7-y-1" value="" style="endArrow=none;dashed=1;html=1;dashPattern=1 3;strokeWidth=2;rounded=0;startArrow=none;" edge="1" parent="1" source="m_vW4j6HjIQTjGsOd7-y-59">
          <mxGeometry width="50" height="50" relative="1" as="geometry">
            <mxPoint x="40" y="680" as="sourcePoint" />
            <mxPoint x="960" y="680" as="targetPoint" />
          </mxGeometry>
        </mxCell>
        <mxCell id="m_vW4j6HjIQTjGsOd7-y-2" value="Hardware" style="rounded=1;whiteSpace=wrap;html=1;" vertex="1" parent="1">
          <mxGeometry x="60" y="760" width="120" height="60" as="geometry" />
        </mxCell>
        <mxCell id="m_vW4j6HjIQTjGsOd7-y-3" value="Security" style="rounded=1;whiteSpace=wrap;html=1;" vertex="1" parent="1">
          <mxGeometry x="305" y="760" width="120" height="60" as="geometry" />
        </mxCell>
        <mxCell id="m_vW4j6HjIQTjGsOd7-y-4" value="Network" style="rounded=1;whiteSpace=wrap;html=1;" vertex="1" parent="1">
          <mxGeometry x="560" y="760" width="120" height="60" as="geometry" />
        </mxCell>
        <mxCell id="m_vW4j6HjIQTjGsOd7-y-5" value="Service" style="rounded=1;whiteSpace=wrap;html=1;" vertex="1" parent="1">
          <mxGeometry x="820" y="760" width="120" height="60" as="geometry" />
        </mxCell>
        <mxCell id="m_vW4j6HjIQTjGsOd7-y-7" value="Monitoring&lt;br&gt;(metrics, tracing...)" style="rounded=1;whiteSpace=wrap;html=1;" vertex="1" parent="1">
          <mxGeometry x="820" y="590" width="120" height="60" as="geometry" />
        </mxCell>
        <mxCell id="m_vW4j6HjIQTjGsOd7-y-8" value="Telemetry&lt;br&gt;(service profile)" style="rounded=1;whiteSpace=wrap;html=1;" vertex="1" parent="1">
          <mxGeometry x="820" y="460" width="120" height="60" as="geometry" />
        </mxCell>
        <mxCell id="m_vW4j6HjIQTjGsOd7-y-9" value="Logging" style="rounded=1;whiteSpace=wrap;html=1;" vertex="1" parent="1">
          <mxGeometry x="820" y="330" width="120" height="60" as="geometry" />
        </mxCell>
        <mxCell id="m_vW4j6HjIQTjGsOd7-y-10" value="Data&lt;br&gt;(data house, ai ...)" style="rounded=1;whiteSpace=wrap;html=1;" vertex="1" parent="1">
          <mxGeometry x="820" y="200" width="120" height="60" as="geometry" />
        </mxCell>
        <mxCell id="m_vW4j6HjIQTjGsOd7-y-11" value="3rd-party integration" style="rounded=1;whiteSpace=wrap;html=1;" vertex="1" parent="1">
          <mxGeometry x="60" y="590" width="120" height="60" as="geometry" />
        </mxCell>
        <mxCell id="m_vW4j6HjIQTjGsOd7-y-12" value="Snowflake/BI" style="rounded=1;whiteSpace=wrap;html=1;" vertex="1" parent="1">
          <mxGeometry x="60" y="460" width="120" height="60" as="geometry" />
        </mxCell>
        <mxCell id="m_vW4j6HjIQTjGsOd7-y-13" value="Salesforce.com" style="rounded=1;whiteSpace=wrap;html=1;" vertex="1" parent="1">
          <mxGeometry x="60" y="330" width="120" height="60" as="geometry" />
        </mxCell>
        <mxCell id="m_vW4j6HjIQTjGsOd7-y-14" value="Apps" style="rounded=1;whiteSpace=wrap;html=1;" vertex="1" parent="1">
          <mxGeometry x="60" y="200" width="120" height="60" as="geometry" />
        </mxCell>
        <mxCell id="m_vW4j6HjIQTjGsOd7-y-15" value="" style="endArrow=none;dashed=1;html=1;dashPattern=1 3;strokeWidth=2;rounded=0;startArrow=none;" edge="1" parent="1" source="m_vW4j6HjIQTjGsOd7-y-61">
          <mxGeometry width="50" height="50" relative="1" as="geometry">
            <mxPoint x="220" y="650" as="sourcePoint" />
            <mxPoint x="220" y="200" as="targetPoint" />
          </mxGeometry>
        </mxCell>
        <mxCell id="m_vW4j6HjIQTjGsOd7-y-16" value="" style="endArrow=none;dashed=1;html=1;dashPattern=1 3;strokeWidth=2;rounded=0;startArrow=none;" edge="1" parent="1" source="m_vW4j6HjIQTjGsOd7-y-50">
          <mxGeometry width="50" height="50" relative="1" as="geometry">
            <mxPoint x="790" y="650" as="sourcePoint" />
            <mxPoint x="790" y="200" as="targetPoint" />
          </mxGeometry>
        </mxCell>
        <mxCell id="m_vW4j6HjIQTjGsOd7-y-19" value="Api/Grpc/Graphql" style="rounded=1;whiteSpace=wrap;html=1;" vertex="1" parent="1">
          <mxGeometry x="254" y="350" width="120" height="60" as="geometry" />
        </mxCell>
        <mxCell id="m_vW4j6HjIQTjGsOd7-y-20" value="Queue" style="rounded=1;whiteSpace=wrap;html=1;" vertex="1" parent="1">
          <mxGeometry x="254" y="440" width="120" height="60" as="geometry" />
        </mxCell>
        <mxCell id="m_vW4j6HjIQTjGsOd7-y-21" value="Data Query" style="rounded=1;whiteSpace=wrap;html=1;" vertex="1" parent="1">
          <mxGeometry x="630" y="440" width="120" height="60" as="geometry" />
        </mxCell>
        <mxCell id="m_vW4j6HjIQTjGsOd7-y-22" value="Common Services&lt;br&gt;(Internal Gateway, Registry...)" style="rounded=1;whiteSpace=wrap;html=1;" vertex="1" parent="1">
          <mxGeometry x="440" y="350" width="120" height="60" as="geometry" />
        </mxCell>
        <mxCell id="m_vW4j6HjIQTjGsOd7-y-23" value="" style="endArrow=none;dashed=1;html=1;dashPattern=1 3;strokeWidth=2;rounded=0;" edge="1" parent="1">
          <mxGeometry width="50" height="50" relative="1" as="geometry">
            <mxPoint x="240" y="520" as="sourcePoint" />
            <mxPoint x="760" y="520" as="targetPoint" />
          </mxGeometry>
        </mxCell>
        <mxCell id="m_vW4j6HjIQTjGsOd7-y-24" value="" style="endArrow=none;dashed=1;html=1;dashPattern=1 3;strokeWidth=2;rounded=0;startArrow=none;" edge="1" parent="1" source="m_vW4j6HjIQTjGsOd7-y-52">
          <mxGeometry width="50" height="50" relative="1" as="geometry">
            <mxPoint x="250" y="320" as="sourcePoint" />
            <mxPoint x="770" y="320" as="targetPoint" />
          </mxGeometry>
        </mxCell>
        <mxCell id="m_vW4j6HjIQTjGsOd7-y-25" value="Backend Service 1" style="rounded=1;whiteSpace=wrap;html=1;" vertex="1" parent="1">
          <mxGeometry x="254" y="590" width="120" height="60" as="geometry" />
        </mxCell>
        <mxCell id="m_vW4j6HjIQTjGsOd7-y-26" value="Backend Service 2" style="rounded=1;whiteSpace=wrap;html=1;" vertex="1" parent="1">
          <mxGeometry x="440" y="590" width="120" height="60" as="geometry" />
        </mxCell>
        <mxCell id="m_vW4j6HjIQTjGsOd7-y-27" value="Backend Service ?" style="rounded=1;whiteSpace=wrap;html=1;" vertex="1" parent="1">
          <mxGeometry x="630" y="590" width="120" height="60" as="geometry" />
        </mxCell>
        <mxCell id="m_vW4j6HjIQTjGsOd7-y-28" value="Api Service 1" style="rounded=1;whiteSpace=wrap;html=1;" vertex="1" parent="1">
          <mxGeometry x="240" y="200" width="120" height="60" as="geometry" />
        </mxCell>
        <mxCell id="m_vW4j6HjIQTjGsOd7-y-29" value="Api Service 2" style="rounded=1;whiteSpace=wrap;html=1;" vertex="1" parent="1">
          <mxGeometry x="426" y="200" width="120" height="60" as="geometry" />
        </mxCell>
        <mxCell id="m_vW4j6HjIQTjGsOd7-y-30" value="Api Service ?" style="rounded=1;whiteSpace=wrap;html=1;" vertex="1" parent="1">
          <mxGeometry x="616" y="200" width="120" height="60" as="geometry" />
        </mxCell>
        <mxCell id="m_vW4j6HjIQTjGsOd7-y-31" value="" style="endArrow=none;dashed=1;html=1;dashPattern=1 3;strokeWidth=2;rounded=0;startArrow=none;" edge="1" parent="1" source="m_vW4j6HjIQTjGsOd7-y-53">
          <mxGeometry width="50" height="50" relative="1" as="geometry">
            <mxPoint x="40" y="170" as="sourcePoint" />
            <mxPoint x="960" y="170" as="targetPoint" />
          </mxGeometry>
        </mxCell>
        <mxCell id="m_vW4j6HjIQTjGsOd7-y-32" value="Api Gateway" style="rounded=1;whiteSpace=wrap;html=1;" vertex="1" parent="1">
          <mxGeometry x="425" y="20" width="120" height="60" as="geometry" />
        </mxCell>
        <mxCell id="m_vW4j6HjIQTjGsOd7-y-33" value="Auth/SSO" style="rounded=1;whiteSpace=wrap;html=1;" vertex="1" parent="1">
          <mxGeometry x="630" y="350" width="120" height="60" as="geometry" />
        </mxCell>
        <mxCell id="m_vW4j6HjIQTjGsOd7-y-34" value="Metadata" style="rounded=1;whiteSpace=wrap;html=1;" vertex="1" parent="1">
          <mxGeometry x="440" y="440" width="120" height="60" as="geometry" />
        </mxCell>
        <mxCell id="m_vW4j6HjIQTjGsOd7-y-35" value="UI" style="rounded=1;whiteSpace=wrap;html=1;" vertex="1" parent="1">
          <mxGeometry x="616" y="90" width="120" height="60" as="geometry" />
        </mxCell>
        <mxCell id="m_vW4j6HjIQTjGsOd7-y-36" value="Api" style="rounded=1;whiteSpace=wrap;html=1;" vertex="1" parent="1">
          <mxGeometry x="240" y="90" width="120" height="60" as="geometry" />
        </mxCell>
        <mxCell id="m_vW4j6HjIQTjGsOd7-y-37" value="CDN" style="rounded=1;whiteSpace=wrap;html=1;" vertex="1" parent="1">
          <mxGeometry x="426" y="-130" width="120" height="60" as="geometry" />
        </mxCell>
        <mxCell id="m_vW4j6HjIQTjGsOd7-y-38" value="DNS" style="rounded=1;whiteSpace=wrap;html=1;" vertex="1" parent="1">
          <mxGeometry x="425" y="-240" width="120" height="60" as="geometry" />
        </mxCell>
        <mxCell id="m_vW4j6HjIQTjGsOd7-y-49" value="" style="endArrow=none;dashed=1;html=1;dashPattern=1 3;strokeWidth=2;rounded=0;" edge="1" parent="1">
          <mxGeometry width="50" height="50" relative="1" as="geometry">
            <mxPoint x="40" y="-10" as="sourcePoint" />
            <mxPoint x="960" y="-10" as="targetPoint" />
          </mxGeometry>
        </mxCell>
        <mxCell id="m_vW4j6HjIQTjGsOd7-y-51" value="Bigdata" style="ellipse;shape=cloud;whiteSpace=wrap;html=1;" vertex="1" parent="1">
          <mxGeometry x="736" y="150" width="120" height="80" as="geometry" />
        </mxCell>
        <mxCell id="m_vW4j6HjIQTjGsOd7-y-53" value="Api Services" style="ellipse;shape=cloud;whiteSpace=wrap;html=1;" vertex="1" parent="1">
          <mxGeometry x="510" y="130" width="120" height="80" as="geometry" />
        </mxCell>
        <mxCell id="m_vW4j6HjIQTjGsOd7-y-54" value="" style="endArrow=none;dashed=1;html=1;dashPattern=1 3;strokeWidth=2;rounded=0;" edge="1" parent="1" target="m_vW4j6HjIQTjGsOd7-y-53">
          <mxGeometry width="50" height="50" relative="1" as="geometry">
            <mxPoint x="40" y="170" as="sourcePoint" />
            <mxPoint x="960" y="170" as="targetPoint" />
          </mxGeometry>
        </mxCell>
        <mxCell id="m_vW4j6HjIQTjGsOd7-y-52" value="Platform" style="ellipse;shape=cloud;whiteSpace=wrap;html=1;" vertex="1" parent="1">
          <mxGeometry x="540" y="280" width="120" height="80" as="geometry" />
        </mxCell>
        <mxCell id="m_vW4j6HjIQTjGsOd7-y-55" value="" style="endArrow=none;dashed=1;html=1;dashPattern=1 3;strokeWidth=2;rounded=0;" edge="1" parent="1" target="m_vW4j6HjIQTjGsOd7-y-52">
          <mxGeometry width="50" height="50" relative="1" as="geometry">
            <mxPoint x="250" y="320" as="sourcePoint" />
            <mxPoint x="770" y="320" as="targetPoint" />
          </mxGeometry>
        </mxCell>
        <mxCell id="m_vW4j6HjIQTjGsOd7-y-50" value="Observability" style="ellipse;shape=cloud;whiteSpace=wrap;html=1;" vertex="1" parent="1">
          <mxGeometry x="730" y="490" width="120" height="80" as="geometry" />
        </mxCell>
        <mxCell id="m_vW4j6HjIQTjGsOd7-y-56" value="" style="endArrow=none;dashed=1;html=1;dashPattern=1 3;strokeWidth=2;rounded=0;" edge="1" parent="1" target="m_vW4j6HjIQTjGsOd7-y-50">
          <mxGeometry width="50" height="50" relative="1" as="geometry">
            <mxPoint x="790" y="650" as="sourcePoint" />
            <mxPoint x="790" y="200" as="targetPoint" />
          </mxGeometry>
        </mxCell>
        <mxCell id="m_vW4j6HjIQTjGsOd7-y-57" value="Frontend" style="ellipse;shape=cloud;whiteSpace=wrap;html=1;" vertex="1" parent="1">
          <mxGeometry x="736" y="-50" width="120" height="80" as="geometry" />
        </mxCell>
        <mxCell id="m_vW4j6HjIQTjGsOd7-y-58" value="Backend" style="ellipse;shape=cloud;whiteSpace=wrap;html=1;" vertex="1" parent="1">
          <mxGeometry x="350" y="490" width="120" height="80" as="geometry" />
        </mxCell>
        <mxCell id="m_vW4j6HjIQTjGsOd7-y-59" value="Infrastructure" style="ellipse;shape=cloud;whiteSpace=wrap;html=1;" vertex="1" parent="1">
          <mxGeometry x="540" y="639" width="120" height="80" as="geometry" />
        </mxCell>
        <mxCell id="m_vW4j6HjIQTjGsOd7-y-60" value="" style="endArrow=none;dashed=1;html=1;dashPattern=1 3;strokeWidth=2;rounded=0;" edge="1" parent="1" target="m_vW4j6HjIQTjGsOd7-y-59">
          <mxGeometry width="50" height="50" relative="1" as="geometry">
            <mxPoint x="40" y="680" as="sourcePoint" />
            <mxPoint x="960" y="680" as="targetPoint" />
          </mxGeometry>
        </mxCell>
        <mxCell id="m_vW4j6HjIQTjGsOd7-y-61" value="Integration" style="ellipse;shape=cloud;whiteSpace=wrap;html=1;" vertex="1" parent="1">
          <mxGeometry x="161" y="380" width="120" height="80" as="geometry" />
        </mxCell>
        <mxCell id="m_vW4j6HjIQTjGsOd7-y-62" value="" style="endArrow=none;dashed=1;html=1;dashPattern=1 3;strokeWidth=2;rounded=0;" edge="1" parent="1" target="m_vW4j6HjIQTjGsOd7-y-61">
          <mxGeometry width="50" height="50" relative="1" as="geometry">
            <mxPoint x="220" y="650" as="sourcePoint" />
            <mxPoint x="220" y="200" as="targetPoint" />
          </mxGeometry>
        </mxCell>
        <mxCell id="m_vW4j6HjIQTjGsOd7-y-63" value="Kubernetes" style="rounded=1;whiteSpace=wrap;html=1;" vertex="1" parent="1">
          <mxGeometry x="700" y="680" width="120" height="60" as="geometry" />
        </mxCell>
        <mxCell id="m_vW4j6HjIQTjGsOd7-y-64" value="ECS" style="rounded=1;whiteSpace=wrap;html=1;" vertex="1" parent="1">
          <mxGeometry x="440" y="680" width="120" height="60" as="geometry" />
        </mxCell>
        <mxCell id="m_vW4j6HjIQTjGsOd7-y-65" value="Baremetal" style="rounded=1;whiteSpace=wrap;html=1;" vertex="1" parent="1">
          <mxGeometry x="180" y="680" width="120" height="60" as="geometry" />
        </mxCell>
      </root>
    </mxGraphModel>
  </diagram>
</mxfile>
